<svg width="1942" height="2067" xmlns="http://www.w3.org/2000/svg" xmlns:xlink="http://www.w3.org/1999/xlink" xml:space="preserve" overflow="hidden"><g transform="translate(-233 -240)"><path d="M1086.5 883.5 2132.5 883.5 2132.5 1594.16 1894.92 1594.16 1894.92 1828.5 1336.08 1828.5 1336.08 1594.16 1086.5 1594.16Z" stroke="#042433" stroke-width="1.14583" stroke-miterlimit="8" fill="#156082" fill-rule="evenodd" fill-opacity="0.501961"/><path d="M1123 1133C1123 1114.77 1137.55 1100 1155.5 1100 1173.45 1100 1188 1114.77 1188 1133 1188 1151.23 1173.45 1166 1155.5 1166 1137.55 1166 1123 1151.23 1123 1133Z" stroke="#000000" stroke-width="2.29167" stroke-miterlimit="8" fill="#FFFFFF" fill-rule="evenodd"/><path d="M483.515-1.14574 532.961-0.505391 557.177 0.283785 581.002 1.37497 604.41 2.76049 627.369 4.43258 649.851 6.38347 671.824 8.60539 693.258 11.0906 714.123 13.8313 734.389 16.8198 754.025 20.0483 773.002 23.5092 791.288 27.1947 808.855 31.0971 825.671 35.209 841.707 39.5226 856.933 44.0304 871.318 48.7252 884.833 53.5994 897.448 58.6461 909.134 63.8584 919.861 69.2298 929.6 74.7544 938.321 80.4269 945.994 86.2431 952.59 92.2002 958.076 98.2966 962.418 104.531 965.574 110.902 967.5 117.398 968.15 123.99 967.734 129.231 966.496 134.427 964.449 139.573 961.61 144.661 957.994 149.685 953.611 154.643 948.474 159.532 942.59 164.349 935.968 169.093 928.615 173.759 920.538 178.342 911.745 182.84 902.242 187.246 892.036 191.557 881.136 195.765 871.7 199.105 870.936 196.945 880.356 193.611 880.326 193.622 891.194 189.425 891.161 189.439 901.332 185.143 901.296 185.159 910.761 180.77 910.721 180.79 919.472 176.313 919.429 176.337 927.459 171.779 927.411 171.808 934.713 167.175 934.66 167.211 941.226 162.508 941.167 162.553 946.989 157.786 946.925 157.842 951.996 153.017 951.927 153.088 956.239 148.21 956.167 148.3 959.712 143.376 959.641 143.487 962.411 138.522 962.347 138.657 964.336 133.657 964.286 133.815 965.484 128.786 965.457 128.961 965.858 123.91 965.86 124.113 965.231 117.732 965.272 117.945 963.405 111.648 963.477 111.831 960.402 105.625 960.489 105.771 956.237 99.6648 956.325 99.7765 950.926 93.7773 951.01 93.8612 944.495 87.9769 944.571 88.0397 936.969 82.2781 937.036 82.3255 928.379 76.6944 928.439 76.7305 918.756 71.2378 918.809 71.2657 908.131 65.919 908.177 65.9409 896.535 60.7482 896.576 60.7656 884 55.7345 884.037 55.7485 870.557 50.8869 870.59 50.8983 856.237 46.2139 856.267 46.2233 841.07 41.724 841.098 41.7318 825.088 37.4254 825.114 37.4319 808.322 33.3261 808.346 33.3316 790.802 29.4342 790.824 29.4389 772.559 25.7577 772.58 25.7617 753.624 22.3046 753.643 22.308 734.026 19.0826 734.045 19.0855 713.798 16.0998 713.816 16.1023 692.968 13.3639 692.985 13.366 671.568 10.8828 671.585 10.8846 649.628 8.66433 649.644 8.66586 627.179 6.71636 627.195 6.71762 604.251 5.04667 604.266 5.04769 580.874 3.66308 580.89 3.66388 557.08 2.5734 557.095 2.57399 532.898 1.78543 532.92 1.78594 483.485 1.14574ZM902.381 205.097 869.174 198.784 891.014 172.986C891.423 172.503 892.146 172.443 892.629 172.852 893.112 173.261 893.172 173.984 892.763 174.467L872.193 198.766 871.532 196.9 902.809 202.845C903.43 202.964 903.839 203.563 903.72 204.185 903.602 204.807 903.002 205.215 902.381 205.097Z" transform="matrix(-1 0 0 1 2092 1245)"/><path d="M483.5 0C750.53 0 967 55.5169 967 124 967 192.484 750.53 248.001 483.5 248.001 483.171 248.001 482.842 248.001 482.513 248.001" stroke="#000000" stroke-width="2.29167" stroke-miterlimit="8" fill="none" fill-rule="evenodd" transform="matrix(-1 0 0 1 2092 1146)"/><path d="M2110.18 886 2174 886 2174 1476.05 2174 1476.05 2174 1598.13 1965.61 1598.13 1965.61 1829 1884 1829 1884 1598.13 1884 1598.13 2110.18 1407.7Z" stroke="#000000" stroke-width="2.29167" stroke-miterlimit="8" fill="#104862" fill-rule="evenodd"/><path d="M1048 883 1111.78 883 1111.78 1404.28 1339 1595.88 1339 1595.88 1339 1595.88 1339 1827 1257.44 1827 1257.44 1595.88 1049.15 1595.88 1049.15 1473.67 1048 1473.67Z" stroke="#000000" stroke-width="2.29167" stroke-miterlimit="8" fill="#104862" fill-rule="evenodd"/><path d="M939.333 82.6553C1028.37 147.22 896.458 218.071 644.708 240.904 592.621 245.629 537.762 248.029 482.513 248" stroke="#000000" stroke-width="2.29167" stroke-miterlimit="8" fill="none" fill-rule="evenodd" transform="matrix(-1 0 0 1 2086 1047)"/><path d="M483.5 0C750.53 0 967 33.3547 967 74.4999 967 115.645 750.53 149 483.5 149 483.302 149 483.105 149 482.907 149" stroke="#000000" stroke-width="2.29167" stroke-miterlimit="8" fill="none" fill-rule="evenodd" transform="matrix(1 -1.22465e-16 -1.22465e-16 -1 1125 1394)"/><path d="M483.5 0C750.53 0 967 33.3547 967 74.4999 967 115.645 750.53 149 483.5 149 483.302 149 483.105 149 482.907 149" stroke="#000000" stroke-width="2.29167" stroke-miterlimit="8" fill="none" fill-rule="evenodd" transform="matrix(1 -1.22465e-16 -1.22465e-16 -1 1125 1295)"/><path d="M1330 241 1897 241 1897 1392.7 1783.94 1392.7 1783.94 1726 1451.96 1726 1451.96 1392.7 1330 1392.7Z" stroke="#000000" stroke-width="2.29167" stroke-miterlimit="8" fill="#8AAFC0" fill-rule="evenodd"/><path d="M808.423 1485 933.811 1485 933.811 840.412 1046 840.412 1046 655.894 933.811 655.894 933.811 528 933.811 330 732.53 155.1 732.53 0 673.136 0 673.136 330 808.423 535.519ZM115.489 1485 240.877 1485 240.877 535.519 376.164 330 376.164 0 316.77 0 316.77 155.1 115.489 330 115.489 528 115.489 658.014 0 658.014 0 842.532 115.489 842.532Z" stroke="#000000" stroke-width="2.29167" stroke-miterlimit="8" fill="#156082" fill-rule="evenodd" transform="matrix(1 -1.22465e-16 -1.22465e-16 -1 1089 1726)"/><path d="M0 0 99 330" stroke="#104862" stroke-width="2.29167" stroke-miterlimit="8" stroke-dasharray="9.16667 6.875" fill="none" fill-rule="evenodd" transform="matrix(-1 0 0 1 1348 1827)"/><path d="M1877 1827 1976 2157" stroke="#104862" stroke-width="2.29167" stroke-miterlimit="8" stroke-dasharray="9.16667 6.875" fill="none" fill-rule="evenodd"/><path d="M0 0 230.569 429" stroke="#156082" stroke-width="2.29167" stroke-miterlimit="8" stroke-dasharray="9.16667 6.875" fill="none" fill-rule="evenodd" transform="matrix(-1 0 0 1 1473.57 1726)"/><path d="M1748 1726 1975.3 2155" stroke="#156082" stroke-width="2.29167" stroke-miterlimit="8" stroke-dasharray="9.16667 6.875" fill="none" fill-rule="evenodd"/><path d="M1338 310C1338 291.775 1352.77 277 1371 277 1389.23 277 1404 291.775 1404 310 1404 328.225 1389.23 343 1371 343 1352.77 343 1338 328.225 1338 310Z" stroke="#042433" stroke-width="2.29167" stroke-miterlimit="8" fill="#FFFFFF" fill-rule="evenodd"/><path d="M248.5 0C385.743-1.58187e-14 497 52.6066 497 117.5 497 182.394 385.743 235 248.5 235 248.188 235 247.877 235 247.565 234.999" stroke="#000000" stroke-width="2.29167" stroke-miterlimit="8" fill="none" fill-rule="evenodd" transform="matrix(-1 0 0 1 1862 362)"/><path d="M248.5 0C385.743-1.58187e-14 497 31.564 497 70.5002 497 109.436 385.743 141 248.5 141 248.313 141 248.126 141 247.939 141" stroke="#000000" stroke-width="2.29167" stroke-miterlimit="8" fill="none" fill-rule="evenodd" transform="matrix(1 -1.22465e-16 -1.22465e-16 -1 1365 597)"/><path d="M248.5 0C385.743-3.16374e-14 497 52.3827 497 117 497 181.618 385.743 234 248.5 234 248.19 234 247.88 234 247.569 233.999" stroke="#000000" stroke-width="2.29167" stroke-miterlimit="8" fill="none" fill-rule="evenodd" transform="matrix(-1 0 0 1 1862 456)"/><path d="M248.5 0C385.743-1.58187e-14 497 31.564 497 70.5002 497 109.436 385.743 141 248.5 141 248.313 141 248.126 141 247.939 141" stroke="#000000" stroke-width="2.29167" stroke-miterlimit="8" fill="none" fill-rule="evenodd" transform="matrix(1 -1.22465e-16 -1.22465e-16 -1 1365 690)"/><path d="M248.5 0C385.743-1.58187e-14 497 52.6066 497 117.5 497 182.394 385.743 235 248.5 235 248.188 235 247.877 235 247.565 234.999" stroke="#000000" stroke-width="2.29167" stroke-miterlimit="8" fill="none" fill-rule="evenodd" transform="matrix(-1 0 0 1 1862 549)"/><path d="M248.5 0C385.743-1.58187e-14 497 31.564 497 70.5002 497 109.436 385.743 141 248.5 141 248.313 141 248.126 141 247.939 141" stroke="#000000" stroke-width="2.29167" stroke-miterlimit="8" fill="none" fill-rule="evenodd" transform="matrix(1 -1.22465e-16 -1.22465e-16 -1 1365 784)"/><path d="M248.5 0C385.743-1.58187e-14 497 52.6066 497 117.5 497 182.394 385.743 235 248.5 235 248.188 235 247.877 235 247.565 234.999" stroke="#000000" stroke-width="2.29167" stroke-miterlimit="8" fill="none" fill-rule="evenodd" transform="matrix(-1 0 0 1 1862 643)"/><path d="M248.5 0C385.743-7.90934e-15 497 31.7879 497 71.0003 497 110.213 385.743 142.001 248.5 142.001 248.312 142.001 248.123 142 247.935 142" stroke="#000000" stroke-width="2.29167" stroke-miterlimit="8" fill="none" fill-rule="evenodd" transform="matrix(1 -1.22465e-16 -1.22465e-16 -1 1365 878)"/><path d="M248.5 0C385.743-1.58187e-14 497 52.6066 497 117.5 497 182.394 385.743 235 248.5 235 248.188 235 247.877 235 247.565 234.999" stroke="#000000" stroke-width="2.29167" stroke-miterlimit="8" fill="none" fill-rule="evenodd" transform="matrix(-1 0 0 1 1862 736)"/><path d="M248.5 0C385.743-1.58187e-14 497 31.564 497 70.5002 497 109.436 385.743 141 248.5 141 248.313 141 248.126 141 247.939 141" stroke="#000000" stroke-width="2.29167" stroke-miterlimit="8" fill="none" fill-rule="evenodd" transform="matrix(1 -1.22465e-16 -1.22465e-16 -1 1365 971)"/><path d="M248.5 0C385.743-1.58187e-14 497 52.6066 497 117.5 497 182.394 385.743 235 248.5 235 248.188 235 247.877 235 247.565 234.999" stroke="#000000" stroke-width="2.29167" stroke-miterlimit="8" fill="none" fill-rule="evenodd" transform="matrix(-1 0 0 1 1862 830)"/><path d="M248.5 0C385.743-7.90934e-15 497 31.7879 497 71.0003 497 110.213 385.743 142.001 248.5 142.001 248.312 142.001 248.123 142 247.935 142" stroke="#000000" stroke-width="2.29167" stroke-miterlimit="8" fill="none" fill-rule="evenodd" transform="matrix(1 -1.22465e-16 -1.22465e-16 -1 1365 1065)"/><path d="M248.527-1.14551 273.963-0.538208 298.692 1.24634 322.563 4.1486 345.453 8.10983 367.236 13.0715 387.788 18.9754 406.978 25.7603 416.039 29.4716 424.706 33.3791 432.974 37.4791 440.825 41.7649 448.245 46.2294 455.218 50.866 461.728 55.6678 467.761 60.6284 473.299 65.7412 478.327 71 482.828 76.3983 486.787 81.9298 490.185 87.5877 493.004 93.365 495.229 99.254 496.839 105.246 497.818 111.332 498.148 117.5 497.818 123.669 496.839 129.754 495.229 135.746 493.004 141.635 490.185 147.412 486.787 153.07 482.828 158.602 478.327 164 473.299 169.259 467.761 174.372 461.728 179.332 455.218 184.134 448.245 188.771 440.825 193.235 432.974 197.521 424.706 201.621 416.039 205.529 406.978 209.24 387.788 216.025 367.236 221.929 345.453 226.89 322.563 230.852 298.692 233.754 273.963 235.538 249.861 236.114 249.807 233.823 273.88 233.248 273.825 233.251 298.499 231.47 298.443 231.475 322.258 228.58 322.201 228.589 345.032 224.637 344.973 224.649 366.695 219.701 366.634 219.717 387.122 213.832 387.057 213.853 406.187 207.089 406.135 207.108 415.152 203.415 415.115 203.431 423.745 199.541 423.707 199.559 431.935 195.478 431.895 195.499 439.706 191.235 439.664 191.259 447.041 186.82 446.997 186.848 453.926 182.241 453.88 182.273 460.344 177.506 460.296 177.543 466.28 172.623 466.23 172.666 471.718 167.599 471.667 167.649 476.643 162.445 476.592 162.503 481.041 157.167 480.989 157.234 484.896 151.774 484.846 151.851 488.194 146.275 488.147 146.363 490.922 140.678 490.879 140.776 493.065 134.989 493.03 135.097 494.611 129.216 494.586 129.332 495.545 123.365 495.533 123.485 495.856 117.439 495.856 117.561 495.533 111.515 495.545 111.635 494.586 105.668 494.611 105.784 493.03 99.9033 493.065 100.011 490.879 94.2246 490.922 94.3223 488.147 88.6376 488.194 88.7249 484.846 83.1491 484.896 83.226 480.989 77.7664 481.041 77.8334 476.592 72.4976 476.643 72.5556 471.667 67.3508 471.718 67.4008 466.23 62.3345 466.28 62.3776 460.296 57.457 460.344 57.4942 453.88 52.7268 453.926 52.7588 446.997 48.1521 447.041 48.1797 439.664 43.7409 439.706 43.7649 431.895 39.5014 431.935 39.5222 423.707 35.4415 423.745 35.4596 415.115 31.569 415.152 31.5847 406.135 27.8916 406.187 27.9116 387.057 21.1475 387.122 21.1685 366.634 15.2829 366.695 15.2988 344.973 10.351 345.032 10.3628 322.201 6.41162 322.258 6.42003 298.443 3.52464 298.499 3.53005 273.825 1.7495 273.88 1.75215 248.473 1.14551ZM276.987 251.63 247.56 234.999 276.521 217.57C277.063 217.244 277.767 217.419 278.094 217.961 278.42 218.504 278.245 219.208 277.703 219.534L250.425 235.95 250.398 233.971 278.114 249.635C278.665 249.946 278.859 250.645 278.548 251.196 278.237 251.747 277.538 251.941 276.987 251.63Z" transform="matrix(-1 0 0 1 1862 923)"/><path d="M248.5 0C385.743-1.58187e-14 497 52.6066 497 117.5 497 182.394 385.743 235 248.5 235 248.188 235 247.877 235 247.565 234.999" stroke="#000000" stroke-width="2.29167" stroke-miterlimit="8" fill="none" fill-rule="evenodd" transform="matrix(-1 0 0 1 1862 268)"/><path d="M248.5 0C385.743-1.58187e-14 497 31.564 497 70.5002 497 109.436 385.743 141 248.5 141 248.313 141 248.126 141 247.939 141" stroke="#000000" stroke-width="2.29167" stroke-miterlimit="8" fill="none" fill-rule="evenodd" transform="matrix(1 -1.22465e-16 -1.22465e-16 -1 1365 503)"/><path d="M10.8466 91.7477C-29.2584 54.2469 44.631 14.5575 175.883 3.09888 307.136-8.35975 446.048 12.7516 486.153 50.2524 526.258 87.7532 452.369 127.443 321.117 138.901 297.401 140.972 272.733 142.016 247.935 142" stroke="#000000" stroke-width="2.29167" stroke-miterlimit="8" fill="none" fill-rule="evenodd" transform="matrix(1 -1.22465e-16 -1.22465e-16 -1 1365 410)"/><path d="M0 0 66 132" stroke="#104862" stroke-width="6.875" stroke-linecap="round" stroke-miterlimit="8" stroke-dasharray="0 13.75" fill="none" fill-rule="evenodd" transform="matrix(-1 0 0 1 1236.5 2171.5)"/><path d="M1979.5 2170.5 2045.5 2302.5" stroke="#104862" stroke-width="6.875" stroke-linecap="round" stroke-miterlimit="8" stroke-dasharray="0 13.75" fill="none" fill-rule="evenodd"/><text font-family="Georgia,Georgia_MSFontService,sans-serif" font-weight="400" font-size="64" transform="matrix(1 0 0 1 551.75 324)">Fuel inlet</text><path d="M847 305.854 1323.73 305.854 1323.73 308.146 847 308.146ZM1319.15 293.25 1346.65 307 1319.15 320.75Z"/><text font-family="Georgia,Georgia_MSFontService,sans-serif" font-weight="400" font-size="64" transform="matrix(1 0 0 1 271.751 1152)">Liquid </text><text font-family="Georgia,Georgia_MSFontService,sans-serif" font-weight="400" font-size="64" transform="matrix(1 0 0 1 473.417 1152)">oxygen inlet</text><path d="M847 1127.85 1100.76 1127.85 1100.76 1130.15 847 1130.15ZM1096.18 1115.25 1123.68 1129 1096.18 1142.75Z"/></g></svg>