<svg width="2392" height="989" xmlns="http://www.w3.org/2000/svg" xmlns:xlink="http://www.w3.org/1999/xlink" xml:space="preserve" overflow="hidden"><defs><linearGradient x1="1519.5" y1="791" x2="1519.5" y2="424" gradientUnits="userSpaceOnUse" spreadMethod="reflect" id="fill0"><stop offset="0" stop-color="#F2AA84"/><stop offset="0.00591716" stop-color="#F2A983" stop-opacity="0.997633"/><stop offset="0.0118343" stop-color="#F2A983" stop-opacity="0.995266"/><stop offset="0.0177515" stop-color="#F2A983" stop-opacity="0.992899"/><stop offset="0.0236686" stop-color="#F2A983" stop-opacity="0.990533"/><stop offset="0.0295858" stop-color="#F2A983" stop-opacity="0.988166"/><stop offset="0.035503" stop-color="#F2A983" stop-opacity="0.985799"/><stop offset="0.0414201" stop-color="#F2A983" stop-opacity="0.983432"/><stop offset="0.0473373" stop-color="#F3A983" stop-opacity="0.981065"/><stop offset="0.0532544" stop-color="#F3A983" stop-opacity="0.978698"/><stop offset="0.0591716" stop-color="#F3A983" stop-opacity="0.976331"/><stop offset="0.0650888" stop-color="#F3A883" stop-opacity="0.973965"/><stop offset="0.0710059" stop-color="#F3A883" stop-opacity="0.971598"/><stop offset="0.0769231" stop-color="#F3A882" stop-opacity="0.969231"/><stop offset="0.0828402" stop-color="#F3A882" stop-opacity="0.966864"/><stop offset="0.0887574" stop-color="#F4A882" stop-opacity="0.964497"/><stop offset="0.0946746" stop-color="#F4A782" stop-opacity="0.96213"/><stop offset="0.100592" stop-color="#F4A782" stop-opacity="0.959763"/><stop offset="0.106509" stop-color="#F4A782" stop-opacity="0.957397"/><stop offset="0.112426" stop-color="#F4A781" stop-opacity="0.95503"/><stop offset="0.118343" stop-color="#F4A681" stop-opacity="0.952663"/><stop offset="0.12426" stop-color="#F4A681" stop-opacity="0.950296"/><stop offset="0.130178" stop-color="#F4A681" stop-opacity="0.947929"/><stop offset="0.136095" stop-color="#F5A580" stop-opacity="0.945562"/><stop offset="0.142012" stop-color="#F5A580" stop-opacity="0.943195"/><stop offset="0.147929" stop-color="#F5A580" stop-opacity="0.940828"/><stop offset="0.153846" stop-color="#F5A480" stop-opacity="0.938462"/><stop offset="0.159763" stop-color="#F5A47F" stop-opacity="0.936095"/><stop offset="0.16568" stop-color="#F5A47F" stop-opacity="0.933728"/><stop offset="0.171598" stop-color="#F5A37F" stop-opacity="0.931361"/><stop offset="0.177515" stop-color="#F5A37E" stop-opacity="0.928994"/><stop offset="0.183432" stop-color="#F6A27E" stop-opacity="0.926627"/><stop offset="0.189349" stop-color="#F6A27E" stop-opacity="0.92426"/><stop offset="0.195266" stop-color="#F6A27D" stop-opacity="0.921894"/><stop offset="0.201183" stop-color="#F6A17D" stop-opacity="0.919527"/><stop offset="0.207101" stop-color="#F6A17D" stop-opacity="0.91716"/><stop offset="0.213018" stop-color="#F6A07C" stop-opacity="0.914793"/><stop offset="0.218935" stop-color="#F6A07C" stop-opacity="0.912426"/><stop offset="0.224852" stop-color="#F69F7B" stop-opacity="0.910059"/><stop offset="0.230769" stop-color="#F79F7B" stop-opacity="0.907692"/><stop offset="0.236686" stop-color="#F79E7B" stop-opacity="0.905325"/><stop offset="0.242604" stop-color="#F79E7A" stop-opacity="0.902959"/><stop offset="0.248521" stop-color="#F79D7A" stop-opacity="0.900592"/><stop offset="0.254438" stop-color="#F79C79" stop-opacity="0.898225"/><stop offset="0.260355" stop-color="#F79C79" stop-opacity="0.895858"/><stop offset="0.266272" stop-color="#F79B78" stop-opacity="0.893491"/><stop offset="0.272189" stop-color="#F79B78" stop-opacity="0.891124"/><stop offset="0.278107" stop-color="#F79A78" stop-opacity="0.888757"/><stop offset="0.284024" stop-color="#F89977" stop-opacity="0.886391"/><stop offset="0.289941" stop-color="#F89977" stop-opacity="0.884024"/><stop offset="0.295858" stop-color="#F89876" stop-opacity="0.881657"/><stop offset="0.301775" stop-color="#F89876" stop-opacity="0.87929"/><stop offset="0.307692" stop-color="#F89775" stop-opacity="0.876923"/><stop offset="0.313609" stop-color="#F89674" stop-opacity="0.874556"/><stop offset="0.319527" stop-color="#F89574" stop-opacity="0.872189"/><stop offset="0.325444" stop-color="#F89573" stop-opacity="0.869823"/><stop offset="0.331361" stop-color="#F89473" stop-opacity="0.867456"/><stop offset="0.337278" stop-color="#F89372" stop-opacity="0.865089"/><stop offset="0.343195" stop-color="#F99372" stop-opacity="0.862722"/><stop offset="0.349112" stop-color="#F99271" stop-opacity="0.860355"/><stop offset="0.35503" stop-color="#F99171" stop-opacity="0.857988"/><stop offset="0.360947" stop-color="#F99070" stop-opacity="0.855621"/><stop offset="0.366864" stop-color="#F9906F" stop-opacity="0.853254"/><stop offset="0.372781" stop-color="#F98F6F" stop-opacity="0.850888"/><stop offset="0.378698" stop-color="#F98E6E" stop-opacity="0.848521"/><stop offset="0.384615" stop-color="#F98D6D" stop-opacity="0.846154"/><stop offset="0.390533" stop-color="#F98C6D" stop-opacity="0.843787"/><stop offset="0.39645" stop-color="#F98C6C" stop-opacity="0.84142"/><stop offset="0.402367" stop-color="#FA8B6C" stop-opacity="0.839053"/><stop offset="0.408284" stop-color="#FA8A6B" stop-opacity="0.836686"/><stop offset="0.414201" stop-color="#FA896A" stop-opacity="0.83432"/><stop offset="0.420118" stop-color="#FA886A" stop-opacity="0.831953"/><stop offset="0.426035" stop-color="#FA8769" stop-opacity="0.829586"/><stop offset="0.431953" stop-color="#FA8668" stop-opacity="0.827219"/><stop offset="0.43787" stop-color="#FA8567" stop-opacity="0.824852"/><stop offset="0.443787" stop-color="#FA8467" stop-opacity="0.822485"/><stop offset="0.449704" stop-color="#FA8466" stop-opacity="0.820118"/><stop offset="0.455621" stop-color="#FA8365" stop-opacity="0.817752"/><stop offset="0.461538" stop-color="#FA8265" stop-opacity="0.815385"/><stop offset="0.467456" stop-color="#FB8164" stop-opacity="0.813018"/><stop offset="0.473373" stop-color="#FB8063" stop-opacity="0.810651"/><stop offset="0.47929" stop-color="#FB7F62" stop-opacity="0.808284"/><stop offset="0.485207" stop-color="#FB7E61" stop-opacity="0.805917"/><stop offset="0.491124" stop-color="#FB7D61" stop-opacity="0.80355"/><stop offset="0.497041" stop-color="#FB7C60" stop-opacity="0.801183"/><stop offset="0.502959" stop-color="#FB7B5F" stop-opacity="0.798817"/><stop offset="0.508876" stop-color="#FB7A5E" stop-opacity="0.79645"/><stop offset="0.514793" stop-color="#FB795D" stop-opacity="0.794083"/><stop offset="0.52071" stop-color="#FB775D" stop-opacity="0.791716"/><stop offset="0.526627" stop-color="#FB765C" stop-opacity="0.789349"/><stop offset="0.532544" stop-color="#FB755B" stop-opacity="0.786982"/><stop offset="0.538462" stop-color="#FB745A" stop-opacity="0.784615"/><stop offset="0.544379" stop-color="#FC7359" stop-opacity="0.782248"/><stop offset="0.550296" stop-color="#FC7258" stop-opacity="0.779882"/><stop offset="0.556213" stop-color="#FC7158" stop-opacity="0.777515"/><stop offset="0.56213" stop-color="#FC7057" stop-opacity="0.775148"/><stop offset="0.568047" stop-color="#FC6F56" stop-opacity="0.772781"/><stop offset="0.573964" stop-color="#FC6D55" stop-opacity="0.770414"/><stop offset="0.579882" stop-color="#FC6C54" stop-opacity="0.768047"/><stop offset="0.585799" stop-color="#FC6B53" stop-opacity="0.76568"/><stop offset="0.591716" stop-color="#FC6A52" stop-opacity="0.763314"/><stop offset="0.597633" stop-color="#FC6951" stop-opacity="0.760947"/><stop offset="0.60355" stop-color="#FC6850" stop-opacity="0.75858"/><stop offset="0.609467" stop-color="#FC664F" stop-opacity="0.756213"/><stop offset="0.615385" stop-color="#FC654E" stop-opacity="0.753846"/><stop offset="0.621302" stop-color="#FC644D" stop-opacity="0.751479"/><stop offset="0.627219" stop-color="#FC634C" stop-opacity="0.749112"/><stop offset="0.633136" stop-color="#FD614B" stop-opacity="0.746746"/><stop offset="0.639053" stop-color="#FD604A" stop-opacity="0.744379"/><stop offset="0.64497" stop-color="#FD5F49" stop-opacity="0.742012"/><stop offset="0.650888" stop-color="#FD5E48" stop-opacity="0.739645"/><stop offset="0.656805" stop-color="#FD5C47" stop-opacity="0.737278"/><stop offset="0.662722" stop-color="#FD5B46" stop-opacity="0.734911"/><stop offset="0.668639" stop-color="#FD5A45" stop-opacity="0.732544"/><stop offset="0.674556" stop-color="#FD5844" stop-opacity="0.730178"/><stop offset="0.680473" stop-color="#FD5743" stop-opacity="0.727811"/><stop offset="0.686391" stop-color="#FD5642" stop-opacity="0.725444"/><stop offset="0.692308" stop-color="#FD5441" stop-opacity="0.723077"/><stop offset="0.698225" stop-color="#FD5340" stop-opacity="0.72071"/><stop offset="0.704142" stop-color="#FD513F" stop-opacity="0.718343"/><stop offset="0.710059" stop-color="#FD503E" stop-opacity="0.715976"/><stop offset="0.715976" stop-color="#FD4F3D" stop-opacity="0.713609"/><stop offset="0.721893" stop-color="#FD4D3C" stop-opacity="0.711243"/><stop offset="0.727811" stop-color="#FD4C3B" stop-opacity="0.708876"/><stop offset="0.733728" stop-color="#FD4A3A" stop-opacity="0.706509"/><stop offset="0.739645" stop-color="#FD4939" stop-opacity="0.704142"/><stop offset="0.745562" stop-color="#FE4737" stop-opacity="0.701775"/><stop offset="0.751479" stop-color="#FE4636" stop-opacity="0.699408"/><stop offset="0.757396" stop-color="#FE4535" stop-opacity="0.697041"/><stop offset="0.763314" stop-color="#FE4334" stop-opacity="0.694675"/><stop offset="0.769231" stop-color="#FE4233" stop-opacity="0.692308"/><stop offset="0.775148" stop-color="#FE4032" stop-opacity="0.689941"/><stop offset="0.781065" stop-color="#FE3F30" stop-opacity="0.687574"/><stop offset="0.786982" stop-color="#FE3D2F" stop-opacity="0.685207"/><stop offset="0.792899" stop-color="#FE3B2E" stop-opacity="0.68284"/><stop offset="0.798817" stop-color="#FE3A2D" stop-opacity="0.680473"/><stop offset="0.804734" stop-color="#FE382C" stop-opacity="0.678107"/><stop offset="0.810651" stop-color="#FE372A" stop-opacity="0.67574"/><stop offset="0.816568" stop-color="#FE3529" stop-opacity="0.673373"/><stop offset="0.822485" stop-color="#FE3428" stop-opacity="0.671006"/><stop offset="0.828402" stop-color="#FE3227" stop-opacity="0.668639"/><stop offset="0.83432" stop-color="#FE3026" stop-opacity="0.666272"/><stop offset="0.840237" stop-color="#FE2F24" stop-opacity="0.663905"/><stop offset="0.846154" stop-color="#FE2D23" stop-opacity="0.661538"/><stop offset="0.852071" stop-color="#FE2C22" stop-opacity="0.659172"/><stop offset="0.857988" stop-color="#FE2A20" stop-opacity="0.656805"/><stop offset="0.863905" stop-color="#FE281F" stop-opacity="0.654438"/><stop offset="0.869823" stop-color="#FE271E" stop-opacity="0.652071"/><stop offset="0.87574" stop-color="#FE251D" stop-opacity="0.649704"/><stop offset="0.881657" stop-color="#FE231B" stop-opacity="0.647337"/><stop offset="0.887574" stop-color="#FE221A" stop-opacity="0.64497"/><stop offset="0.893491" stop-color="#FE2019" stop-opacity="0.642604"/><stop offset="0.899408" stop-color="#FE1E17" stop-opacity="0.640237"/><stop offset="0.905325" stop-color="#FE1C16" stop-opacity="0.63787"/><stop offset="0.911243" stop-color="#FE1B15" stop-opacity="0.635503"/><stop offset="0.91716" stop-color="#FE1913" stop-opacity="0.633136"/><stop offset="0.923077" stop-color="#FE1712" stop-opacity="0.630769"/><stop offset="0.928994" stop-color="#FE1511" stop-opacity="0.628402"/><stop offset="0.934911" stop-color="#FE140F" stop-opacity="0.626036"/><stop offset="0.940828" stop-color="#FE120E" stop-opacity="0.623669"/><stop offset="0.946746" stop-color="#FE100C" stop-opacity="0.621302"/><stop offset="0.952663" stop-color="#FE0E0B" stop-opacity="0.618935"/><stop offset="0.95858" stop-color="#FE0C0A" stop-opacity="0.616568"/><stop offset="0.964497" stop-color="#FE0B08" stop-opacity="0.614201"/><stop offset="0.970414" stop-color="#FE0907" stop-opacity="0.611834"/><stop offset="0.976331" stop-color="#FE0705" stop-opacity="0.609468"/><stop offset="0.982249" stop-color="#FE0504" stop-opacity="0.607101"/><stop offset="0.988166" stop-color="#FE0302" stop-opacity="0.604734"/><stop offset="0.994083" stop-color="#FE0101" stop-opacity="0.602367"/><stop offset="1" stop-color="#FF0000" stop-opacity="0.6"/></linearGradient><linearGradient x1="2215" y1="625" x2="2215" y2="422" gradientUnits="userSpaceOnUse" spreadMethod="reflect" id="fill1"><stop offset="0" stop-color="#F2AA84"/><stop offset="0.00591716" stop-color="#F2A983" stop-opacity="0.997633"/><stop offset="0.0118343" stop-color="#F2A983" stop-opacity="0.995266"/><stop offset="0.0177515" stop-color="#F2A983" stop-opacity="0.992899"/><stop offset="0.0236686" stop-color="#F2A983" stop-opacity="0.990533"/><stop offset="0.0295858" stop-color="#F2A983" stop-opacity="0.988166"/><stop offset="0.035503" stop-color="#F2A983" stop-opacity="0.985799"/><stop offset="0.0414201" stop-color="#F2A983" stop-opacity="0.983432"/><stop offset="0.0473373" stop-color="#F3A983" stop-opacity="0.981065"/><stop offset="0.0532544" stop-color="#F3A983" stop-opacity="0.978698"/><stop offset="0.0591716" stop-color="#F3A983" stop-opacity="0.976331"/><stop offset="0.0650888" stop-color="#F3A883" stop-opacity="0.973965"/><stop offset="0.0710059" stop-color="#F3A883" stop-opacity="0.971598"/><stop offset="0.0769231" stop-color="#F3A882" stop-opacity="0.969231"/><stop offset="0.0828402" stop-color="#F3A882" stop-opacity="0.966864"/><stop offset="0.0887574" stop-color="#F4A882" stop-opacity="0.964497"/><stop offset="0.0946746" stop-color="#F4A782" stop-opacity="0.96213"/><stop offset="0.100592" stop-color="#F4A782" stop-opacity="0.959763"/><stop offset="0.106509" stop-color="#F4A782" stop-opacity="0.957397"/><stop offset="0.112426" stop-color="#F4A781" stop-opacity="0.95503"/><stop offset="0.118343" stop-color="#F4A681" stop-opacity="0.952663"/><stop offset="0.12426" stop-color="#F4A681" stop-opacity="0.950296"/><stop offset="0.130178" stop-color="#F4A681" stop-opacity="0.947929"/><stop offset="0.136095" stop-color="#F5A580" stop-opacity="0.945562"/><stop offset="0.142012" stop-color="#F5A580" stop-opacity="0.943195"/><stop offset="0.147929" stop-color="#F5A580" stop-opacity="0.940828"/><stop offset="0.153846" stop-color="#F5A480" stop-opacity="0.938462"/><stop offset="0.159763" stop-color="#F5A47F" stop-opacity="0.936095"/><stop offset="0.16568" stop-color="#F5A47F" stop-opacity="0.933728"/><stop offset="0.171598" stop-color="#F5A37F" stop-opacity="0.931361"/><stop offset="0.177515" stop-color="#F5A37E" stop-opacity="0.928994"/><stop offset="0.183432" stop-color="#F6A27E" stop-opacity="0.926627"/><stop offset="0.189349" stop-color="#F6A27E" stop-opacity="0.92426"/><stop offset="0.195266" stop-color="#F6A27D" stop-opacity="0.921894"/><stop offset="0.201183" stop-color="#F6A17D" stop-opacity="0.919527"/><stop offset="0.207101" stop-color="#F6A17D" stop-opacity="0.91716"/><stop offset="0.213018" stop-color="#F6A07C" stop-opacity="0.914793"/><stop offset="0.218935" stop-color="#F6A07C" stop-opacity="0.912426"/><stop offset="0.224852" stop-color="#F69F7B" stop-opacity="0.910059"/><stop offset="0.230769" stop-color="#F79F7B" stop-opacity="0.907692"/><stop offset="0.236686" stop-color="#F79E7B" stop-opacity="0.905325"/><stop offset="0.242604" stop-color="#F79E7A" stop-opacity="0.902959"/><stop offset="0.248521" stop-color="#F79D7A" stop-opacity="0.900592"/><stop offset="0.254438" stop-color="#F79C79" stop-opacity="0.898225"/><stop offset="0.260355" stop-color="#F79C79" stop-opacity="0.895858"/><stop offset="0.266272" stop-color="#F79B78" stop-opacity="0.893491"/><stop offset="0.272189" stop-color="#F79B78" stop-opacity="0.891124"/><stop offset="0.278107" stop-color="#F79A78" stop-opacity="0.888757"/><stop offset="0.284024" stop-color="#F89977" stop-opacity="0.886391"/><stop offset="0.289941" stop-color="#F89977" stop-opacity="0.884024"/><stop offset="0.295858" stop-color="#F89876" stop-opacity="0.881657"/><stop offset="0.301775" stop-color="#F89876" stop-opacity="0.87929"/><stop offset="0.307692" stop-color="#F89775" stop-opacity="0.876923"/><stop offset="0.313609" stop-color="#F89674" stop-opacity="0.874556"/><stop offset="0.319527" stop-color="#F89574" stop-opacity="0.872189"/><stop offset="0.325444" stop-color="#F89573" stop-opacity="0.869823"/><stop offset="0.331361" stop-color="#F89473" stop-opacity="0.867456"/><stop offset="0.337278" stop-color="#F89372" stop-opacity="0.865089"/><stop offset="0.343195" stop-color="#F99372" stop-opacity="0.862722"/><stop offset="0.349112" stop-color="#F99271" stop-opacity="0.860355"/><stop offset="0.35503" stop-color="#F99171" stop-opacity="0.857988"/><stop offset="0.360947" stop-color="#F99070" stop-opacity="0.855621"/><stop offset="0.366864" stop-color="#F9906F" stop-opacity="0.853254"/><stop offset="0.372781" stop-color="#F98F6F" stop-opacity="0.850888"/><stop offset="0.378698" stop-color="#F98E6E" stop-opacity="0.848521"/><stop offset="0.384615" stop-color="#F98D6D" stop-opacity="0.846154"/><stop offset="0.390533" stop-color="#F98C6D" stop-opacity="0.843787"/><stop offset="0.39645" stop-color="#F98C6C" stop-opacity="0.84142"/><stop offset="0.402367" stop-color="#FA8B6C" stop-opacity="0.839053"/><stop offset="0.408284" stop-color="#FA8A6B" stop-opacity="0.836686"/><stop offset="0.414201" stop-color="#FA896A" stop-opacity="0.83432"/><stop offset="0.420118" stop-color="#FA886A" stop-opacity="0.831953"/><stop offset="0.426035" stop-color="#FA8769" stop-opacity="0.829586"/><stop offset="0.431953" stop-color="#FA8668" stop-opacity="0.827219"/><stop offset="0.43787" stop-color="#FA8567" stop-opacity="0.824852"/><stop offset="0.443787" stop-color="#FA8467" stop-opacity="0.822485"/><stop offset="0.449704" stop-color="#FA8466" stop-opacity="0.820118"/><stop offset="0.455621" stop-color="#FA8365" stop-opacity="0.817752"/><stop offset="0.461538" stop-color="#FA8265" stop-opacity="0.815385"/><stop offset="0.467456" stop-color="#FB8164" stop-opacity="0.813018"/><stop offset="0.473373" stop-color="#FB8063" stop-opacity="0.810651"/><stop offset="0.47929" stop-color="#FB7F62" stop-opacity="0.808284"/><stop offset="0.485207" stop-color="#FB7E61" stop-opacity="0.805917"/><stop offset="0.491124" stop-color="#FB7D61" stop-opacity="0.80355"/><stop offset="0.497041" stop-color="#FB7C60" stop-opacity="0.801183"/><stop offset="0.502959" stop-color="#FB7B5F" stop-opacity="0.798817"/><stop offset="0.508876" stop-color="#FB7A5E" stop-opacity="0.79645"/><stop offset="0.514793" stop-color="#FB795D" stop-opacity="0.794083"/><stop offset="0.52071" stop-color="#FB775D" stop-opacity="0.791716"/><stop offset="0.526627" stop-color="#FB765C" stop-opacity="0.789349"/><stop offset="0.532544" stop-color="#FB755B" stop-opacity="0.786982"/><stop offset="0.538462" stop-color="#FB745A" stop-opacity="0.784615"/><stop offset="0.544379" stop-color="#FC7359" stop-opacity="0.782248"/><stop offset="0.550296" stop-color="#FC7258" stop-opacity="0.779882"/><stop offset="0.556213" stop-color="#FC7158" stop-opacity="0.777515"/><stop offset="0.56213" stop-color="#FC7057" stop-opacity="0.775148"/><stop offset="0.568047" stop-color="#FC6F56" stop-opacity="0.772781"/><stop offset="0.573964" stop-color="#FC6D55" stop-opacity="0.770414"/><stop offset="0.579882" stop-color="#FC6C54" stop-opacity="0.768047"/><stop offset="0.585799" stop-color="#FC6B53" stop-opacity="0.76568"/><stop offset="0.591716" stop-color="#FC6A52" stop-opacity="0.763314"/><stop offset="0.597633" stop-color="#FC6951" stop-opacity="0.760947"/><stop offset="0.60355" stop-color="#FC6850" stop-opacity="0.75858"/><stop offset="0.609467" stop-color="#FC664F" stop-opacity="0.756213"/><stop offset="0.615385" stop-color="#FC654E" stop-opacity="0.753846"/><stop offset="0.621302" stop-color="#FC644D" stop-opacity="0.751479"/><stop offset="0.627219" stop-color="#FC634C" stop-opacity="0.749112"/><stop offset="0.633136" stop-color="#FD614B" stop-opacity="0.746746"/><stop offset="0.639053" stop-color="#FD604A" stop-opacity="0.744379"/><stop offset="0.64497" stop-color="#FD5F49" stop-opacity="0.742012"/><stop offset="0.650888" stop-color="#FD5E48" stop-opacity="0.739645"/><stop offset="0.656805" stop-color="#FD5C47" stop-opacity="0.737278"/><stop offset="0.662722" stop-color="#FD5B46" stop-opacity="0.734911"/><stop offset="0.668639" stop-color="#FD5A45" stop-opacity="0.732544"/><stop offset="0.674556" stop-color="#FD5844" stop-opacity="0.730178"/><stop offset="0.680473" stop-color="#FD5743" stop-opacity="0.727811"/><stop offset="0.686391" stop-color="#FD5642" stop-opacity="0.725444"/><stop offset="0.692308" stop-color="#FD5441" stop-opacity="0.723077"/><stop offset="0.698225" stop-color="#FD5340" stop-opacity="0.72071"/><stop offset="0.704142" stop-color="#FD513F" stop-opacity="0.718343"/><stop offset="0.710059" stop-color="#FD503E" stop-opacity="0.715976"/><stop offset="0.715976" stop-color="#FD4F3D" stop-opacity="0.713609"/><stop offset="0.721893" stop-color="#FD4D3C" stop-opacity="0.711243"/><stop offset="0.727811" stop-color="#FD4C3B" stop-opacity="0.708876"/><stop offset="0.733728" stop-color="#FD4A3A" stop-opacity="0.706509"/><stop offset="0.739645" stop-color="#FD4939" stop-opacity="0.704142"/><stop offset="0.745562" stop-color="#FE4737" stop-opacity="0.701775"/><stop offset="0.751479" stop-color="#FE4636" stop-opacity="0.699408"/><stop offset="0.757396" stop-color="#FE4535" stop-opacity="0.697041"/><stop offset="0.763314" stop-color="#FE4334" stop-opacity="0.694675"/><stop offset="0.769231" stop-color="#FE4233" stop-opacity="0.692308"/><stop offset="0.775148" stop-color="#FE4032" stop-opacity="0.689941"/><stop offset="0.781065" stop-color="#FE3F30" stop-opacity="0.687574"/><stop offset="0.786982" stop-color="#FE3D2F" stop-opacity="0.685207"/><stop offset="0.792899" stop-color="#FE3B2E" stop-opacity="0.68284"/><stop offset="0.798817" stop-color="#FE3A2D" stop-opacity="0.680473"/><stop offset="0.804734" stop-color="#FE382C" stop-opacity="0.678107"/><stop offset="0.810651" stop-color="#FE372A" stop-opacity="0.67574"/><stop offset="0.816568" stop-color="#FE3529" stop-opacity="0.673373"/><stop offset="0.822485" stop-color="#FE3428" stop-opacity="0.671006"/><stop offset="0.828402" stop-color="#FE3227" stop-opacity="0.668639"/><stop offset="0.83432" stop-color="#FE3026" stop-opacity="0.666272"/><stop offset="0.840237" stop-color="#FE2F24" stop-opacity="0.663905"/><stop offset="0.846154" stop-color="#FE2D23" stop-opacity="0.661538"/><stop offset="0.852071" stop-color="#FE2C22" stop-opacity="0.659172"/><stop offset="0.857988" stop-color="#FE2A20" stop-opacity="0.656805"/><stop offset="0.863905" stop-color="#FE281F" stop-opacity="0.654438"/><stop offset="0.869823" stop-color="#FE271E" stop-opacity="0.652071"/><stop offset="0.87574" stop-color="#FE251D" stop-opacity="0.649704"/><stop offset="0.881657" stop-color="#FE231B" stop-opacity="0.647337"/><stop offset="0.887574" stop-color="#FE221A" stop-opacity="0.64497"/><stop offset="0.893491" stop-color="#FE2019" stop-opacity="0.642604"/><stop offset="0.899408" stop-color="#FE1E17" stop-opacity="0.640237"/><stop offset="0.905325" stop-color="#FE1C16" stop-opacity="0.63787"/><stop offset="0.911243" stop-color="#FE1B15" stop-opacity="0.635503"/><stop offset="0.91716" stop-color="#FE1913" stop-opacity="0.633136"/><stop offset="0.923077" stop-color="#FE1712" stop-opacity="0.630769"/><stop offset="0.928994" stop-color="#FE1511" stop-opacity="0.628402"/><stop offset="0.934911" stop-color="#FE140F" stop-opacity="0.626036"/><stop offset="0.940828" stop-color="#FE120E" stop-opacity="0.623669"/><stop offset="0.946746" stop-color="#FE100C" stop-opacity="0.621302"/><stop offset="0.952663" stop-color="#FE0E0B" stop-opacity="0.618935"/><stop offset="0.95858" stop-color="#FE0C0A" stop-opacity="0.616568"/><stop offset="0.964497" stop-color="#FE0B08" stop-opacity="0.614201"/><stop offset="0.970414" stop-color="#FE0907" stop-opacity="0.611834"/><stop offset="0.976331" stop-color="#FE0705" stop-opacity="0.609468"/><stop offset="0.982249" stop-color="#FE0504" stop-opacity="0.607101"/><stop offset="0.988166" stop-color="#FE0302" stop-opacity="0.604734"/><stop offset="0.994083" stop-color="#FE0101" stop-opacity="0.602367"/><stop offset="1" stop-color="#FF0000" stop-opacity="0.6"/></linearGradient></defs><g transform="translate(-467 -220)"><rect x="1413" y="474" width="69.9998" height="317" stroke="#042433" stroke-width="2.29167" stroke-miterlimit="8" fill="#A6A6A6"/><rect x="1556" y="474" width="69.9998" height="317" stroke="#042433" stroke-width="2.29167" stroke-miterlimit="8" fill="#A6A6A6"/><path d="M0 171 210.74 171 222 136.799 222 125.165 222 125.165 222 93.3958 210.741 0 0.000360997 0 0.000360997 125.165 0 125.165Z" stroke="#000000" stroke-width="2.29167" stroke-miterlimit="8" fill="#7F8FAF" fill-rule="evenodd" transform="matrix(1 0 0 -1 1172 742)"/><path d="M1247.82 476.231 1259.18 477.843 1270.71 479.794 1282.52 482.419 1294.68 486.045 1307.46 490.791 1320.73 496.464 1333.92 502.924 1346.43 510.022 1352.59 514.039 1358.87 518.533 1371.12 528.155 1376.84 532.942 1381.25 536.758 1378.26 540.226 1373.85 536.421 1373.88 536.444 1368.21 531.692 1368.26 531.738 1356.07 522.169 1356.16 522.23 1349.96 517.794 1350.04 517.85 1343.99 513.899 1344.11 513.973 1331.72 506.945 1331.84 507.01 1318.77 500.605 1318.88 500.655 1305.71 495.027 1305.82 495.068 1293.15 490.368 1293.3 490.416 1281.29 486.834 1281.44 486.875 1269.77 484.281 1269.89 484.303 1258.45 482.367 1258.51 482.376 1247.18 480.769ZM1379.75 538.492 1378.43 515.614 1397.5 559.5 1357.42 533.359Z" fill="#80EFA3"/><path d="M1481.48 833.558C1492.66 865.914 1491.95 1044.16 1480.62 1047.45 1469.29 1050.74 1413.93 891.541 1413.5 853.315 1413.07 815.089 1470.29 801.202 1481.48 833.558Z" stroke="#042433" stroke-width="4.58333" stroke-miterlimit="8" fill="none" fill-rule="evenodd"/><path d="M-0.000215483-6.85407 13.7495-16.0212 0.000360892 11.4793-13.7505-16.0203Z" transform="matrix(1 0 0 -1 1488.5 928.979)"/><path d="M1430.05 924.636 1439.7 911.219 1436.5 941.798 1413.95 920.892Z"/><path d="M0.94824-2.08628 2.62451-1.3244 0.72803 2.84817-0.94824 2.08628ZM1.67627 0.761883-0.979424-15.5488 18.3665 8.3478-12.3583 9.48662Z" transform="matrix(-1 0 0 1 1443.87 816.5)"/><path d="M1489 723.775 1504.25 723.775 1504.25 424 1534.75 424 1534.75 723.775 1550 723.775 1519.5 791Z" stroke="#000000" stroke-width="2.29167" stroke-miterlimit="8" fill="url(#fill0)" fill-rule="evenodd"/><path d="M1239.09 800.286 1247.68 802.582 1256.45 805.379 1265.42 809.138 1270.05 811.553 1274.72 814.366 1279.5 817.579 1284.43 821.151 1294.45 829.227 1304.41 838.428 1313.86 848.526 1318.5 854.237 1323.22 860.605 1327.91 867.375 1332.47 874.281 1336.76 881.059 1340.68 887.442 1342.8 890.976 1338.86 893.332 1336.75 889.808 1336.77 889.829 1332.86 883.471 1332.88 883.499 1328.6 876.751 1328.63 876.786 1324.1 869.919 1324.13 869.963 1319.48 863.246 1319.52 863.305 1314.85 857.007 1314.91 857.088 1310.35 851.479 1310.46 851.599 1301.12 841.62 1301.24 841.739 1291.4 832.646 1291.51 832.747 1281.6 824.757 1281.69 824.827 1276.84 821.313 1276.91 821.36 1272.21 818.202 1272.31 818.263 1267.75 815.516 1267.87 815.585 1263.39 813.247 1263.56 813.328 1254.77 809.645 1254.96 809.715 1246.34 806.966 1246.44 806.996 1237.91 804.714ZM1340.83 892.154 1346.39 869.922 1351.5 917.5 1321.04 880.592Z" fill="#80EFA3"/><path d="M1868 571 1657.26 571 1646 605.201 1646 616.835 1646 616.835 1646 648.604 1657.26 742 1868 742 1868 616.835 1868 616.835Z" stroke="#000000" stroke-width="2.29167" stroke-miterlimit="8" fill="#7F8FAF" fill-rule="evenodd"/><path d="M1384.73 749C1381.75 798.45 1378.78 847.9 1379.01 883.16 1379.25 918.42 1381.87 936.767 1386.15 960.56 1390.44 984.354 1396.63 1005.57 1404.72 1025.92 1412.82 1046.27 1424.96 1062.9 1434.72 1082.68 1444.48 1102.46 1457.57 1128.55 1463.29 1144.6 1469 1160.65 1469 1169.83 1469 1179" stroke="#042433" stroke-width="2.29167" stroke-miterlimit="8" stroke-dasharray="9.16667 6.875" fill="none" fill-rule="evenodd"/><path d="M5.72666 0C2.75086 49.4501-0.224939 98.9001 0.0131964 134.16 0.251332 169.42 2.86993 187.767 7.15487 211.56 11.4398 235.353 17.6299 256.567 25.7238 276.92 33.8177 297.273 45.9587 313.9 55.7193 333.68 65.4799 353.46 78.5731 379.547 84.2866 395.6 90.0001 411.653 90.0001 420.827 90.0001 430" stroke="#042433" stroke-width="2.29167" stroke-miterlimit="8" stroke-dasharray="9.16667 6.875" fill="none" fill-rule="evenodd" transform="matrix(-1 0 0 1 1663 749)"/><path d="M67.9771 18.0577C79.1628 50.4136 78.4455 228.657 67.1164 231.95 55.7873 235.243 0.432163 76.0407 0.00216804 37.8149-0.428188-0.410879 56.7915-14.2981 67.9771 18.0577Z" stroke="#042433" stroke-width="4.58333" stroke-miterlimit="8" fill="none" fill-rule="evenodd" transform="matrix(-1 0 0 1 1624.5 815.5)"/><path d="M1549.5 935.833 1535.75 945 1549.5 917.5 1563.25 945Z"/><path d="M-1.45173-3.86373 8.19555-17.2809 4.99656 13.2982-17.5473-7.60847Z" transform="matrix(-1 0 0 1 1606.5 928.5)"/><path d="M1594.45 814.414 1596.12 815.175 1594.23 819.348 1592.55 818.586ZM1595.18 817.261 1592.52 800.951 1611.87 824.848 1581.14 825.986Z"/><path d="M0.572988-2.21888 9.46107 0.0763206 18.5309 2.86998 27.8112 6.62557 32.602 9.03707 37.4332 11.8473 42.3757 15.0579 47.472 18.6283 57.8449 26.701 68.161 35.9001 77.9406 45.9964 82.7461 51.7064 87.6327 58.0745 92.4909 64.8437 97.2033 71.7504 101.649 78.5287 105.707 84.9111 107.979 88.5736 104.085 90.9897 101.819 87.338 101.833 87.3595 97.7904 81.0016 97.8081 81.0289 93.3823 74.2817 93.4054 74.3163 88.7202 67.4493 88.7514 67.4939 83.9305 60.7767 83.9742 60.8356 79.1414 54.5376 79.2062 54.6181 74.4855 49.009 74.5927 49.1278 64.9272 39.1492 65.0481 39.2651 54.8518 30.1728 54.9695 30.271 44.7025 22.2807 44.795 22.3491 39.7787 18.8347 39.8452 18.8796 34.9838 15.7216 35.0799 15.7807 30.3575 13.0338 30.4793 13.0998 25.8342 10.7617 26.0049 10.839 16.9027 7.15548 17.0877 7.2213 8.16235 4.47212 8.26396 4.50087-0.572988 2.21888ZM106.032 89.7816 111.329 67.4856 117 115 86.111 78.4535Z" fill="#80EFA3" transform="matrix(-1 0 0 1 1808.5 802.5)"/><path d="M0.319809-2.26924 11.7549-0.657677 23.3614 1.2934 35.2447 3.91793 47.4838 7.54384 60.3542 12.2886 73.71 17.9612 86.9842 24.4213 99.5808 31.5186 105.774 35.5349 112.093 40.0287 124.43 49.6502 130.183 54.437 134.688 58.3033 131.702 61.7811 127.211 57.9263 127.238 57.9491 121.526 53.1966 121.583 53.2421 109.314 43.674 109.395 43.7344 103.158 39.2984 103.239 39.3537 97.1469 35.4029 97.2688 35.4767 84.7944 28.4483 84.9166 28.5123 71.7572 22.1081 71.8642 22.1568 58.6135 16.5289 58.7167 16.5698 45.9685 11.8701 46.1103 11.9172 34.0205 8.33548 34.1772 8.37595 22.4298 5.78144 22.5441 5.80366 11.0251 3.86728 11.0851 3.87656-0.319809 2.26924ZM133.195 60.0422 131.804 37.1678 151 81.0001 110.846 54.9727Z" fill="#80EFA3" transform="matrix(-1 0 0 1 1794.5 478.5)"/><text font-family="Georgia,Georgia_MSFontService,sans-serif" font-weight="400" font-size="64" transform="matrix(1 0 0 1 722.251 302)">Metal inlet</text><path d="M1152.45 281.945 1483.63 421.975 1482.74 424.086 1151.55 284.055ZM1484.32 408.581 1504.29 431.955 1473.61 433.91Z"/><text font-family="Georgia,Georgia_MSFontService,sans-serif" font-weight="400" font-size="64" transform="matrix(1 0 0 1 703.739 380)">Melt nozzle</text><text font-family="Georgia,Georgia_MSFontService,sans-serif" font-weight="400" font-size="64" transform="matrix(1 0 0 1 729.193 610)">Gas nozzle</text><text font-family="Georgia,Georgia_MSFontService,sans-serif" font-weight="400" font-size="64" transform="matrix(1 0 0 1 797.458 981)">Vortices</text><text font-family="Georgia,Georgia_MSFontService,sans-serif" font-weight="400" font-size="64" transform="matrix(1 0 0 1 663.821 873)">Entrainment</text><path d="M2.2853-0.170639 5.76939 46.4904 1.19878 46.8317-2.2853 0.170639ZM3.48409 46.6611 15.8308 27.3548 5.53176 74.0847-11.5929 29.4025Z" fill="#80EFA3" transform="matrix(-1 0 0 1 1402.03 717.5)"/><path d="M1640.78 717.297 1644.94 763.99 1640.38 764.396 1636.22 717.703ZM1642.66 764.193 1654.73 744.712 1645.1 791.585 1627.34 747.152Z" fill="#80EFA3"/><text font-family="Georgia,Georgia_MSFontService,sans-serif" font-weight="400" font-size="64" transform="matrix(1 0 0 1 839.11 791)">Ma &gt; 1</text><text font-family="Georgia,Georgia_MSFontService,sans-serif" font-weight="400" font-size="64" transform="matrix(1 0 0 1 778.945 461)">Gaz inlet</text><path d="M1043 283 1151.46 283" stroke="#000000" stroke-width="2.29167" stroke-miterlimit="8" fill="none" fill-rule="evenodd"/><path d="M1151.45 360.947 1392.43 464.131 1391.53 466.238 1150.55 363.053ZM1393.18 450.74 1413.04 474.205 1382.35 476.02Z"/><path d="M1043 362 1151.46 362" stroke="#000000" stroke-width="2.29167" stroke-miterlimit="8" fill="none" fill-rule="evenodd"/><path d="M1149.43 437.939 1225.91 469.185 1225.04 471.307 1148.57 440.061ZM1226.43 455.784 1246.69 478.914 1216.03 481.241Z"/><path d="M1044 439 1150.33 439" stroke="#000000" stroke-width="2.29167" stroke-miterlimit="8" fill="none" fill-rule="evenodd"/><path d="M1149.45 590.946 1245.48 631.922 1244.58 634.03 1148.55 593.054ZM1250.42 620.329C1257.41 623.31 1260.65 631.388 1257.67 638.373 1254.69 645.357 1246.61 648.603 1239.63 645.623 1232.65 642.642 1229.4 634.564 1232.38 627.579 1235.36 620.595 1243.44 617.349 1250.42 620.329Z"/><path d="M1044 592 1150.33 592" stroke="#000000" stroke-width="2.29167" stroke-miterlimit="8" fill="none" fill-rule="evenodd"/><path d="M1043 773.854 1366.96 773.855 1366.96 776.146 1043 776.146ZM1362.38 761.25 1389.88 775.001 1362.38 788.75Z"/><path d="M1043 853.854 1295.79 853.854 1295.79 856.146 1043 856.146ZM1291.2 841.25 1318.7 855 1291.2 868.75Z"/><path d="M1043 962.854 1420.64 962.854 1420.64 965.146 1043 965.146ZM1416.05 950.25 1443.55 964 1416.05 977.75Z"/><path d="M1897 571 2051.61 571 2149.7 637.254 2154 658.324 2150.56 675.163 2051.61 742 1897 742Z" stroke="#000000" stroke-width="2.29167" stroke-miterlimit="8" fill="#7F8FAF" fill-rule="evenodd"/><path d="M2251.88 474.5 2301.5 474.5 2301.5 545.124 2251.88 614.5ZM2130.5 474.5 2180.12 474.5 2180.12 614.5 2130.5 545.124Z" stroke="#042433" stroke-width="6.875" stroke-miterlimit="8" fill="#156082" fill-rule="evenodd"/><path d="M2185 558.877 2200 558.877 2200 422 2230 422 2230 558.877 2245 558.877 2215 625Z" stroke="#000000" stroke-width="2.29167" stroke-miterlimit="8" fill="url(#fill1)" fill-rule="evenodd"/><path d="M0 0 154.01 0 251.713 66.2544 256 87.3236 252.574 104.163 154.01 171 0 171Z" stroke="#000000" stroke-width="2.29167" stroke-miterlimit="8" fill="#7F8FAF" fill-rule="evenodd" transform="matrix(-1 0 0 1 2531 571)"/><path d="M1950.82 474.231 1962.18 475.843 1973.71 477.794 1985.52 480.419 1997.68 484.045 2010.46 488.79 2023.73 494.464 2036.92 500.924 2049.44 508.022 2055.59 512.039 2061.87 516.533 2074.12 526.155 2079.84 530.942 2084.25 534.758 2081.26 538.226 2076.85 534.421 2076.88 534.444 2071.21 529.692 2071.26 529.737 2059.08 520.169 2059.16 520.23 2052.96 515.794 2053.04 515.85 2046.99 511.899 2047.11 511.973 2034.72 504.945 2034.84 505.01 2021.77 498.605 2021.88 498.655 2008.71 493.027 2008.82 493.068 1996.15 488.368 1996.3 488.416 1984.29 484.834 1984.44 484.875 1972.77 482.281 1972.89 482.303 1961.45 480.367 1961.51 480.376 1950.18 478.769ZM2082.75 536.492 2081.43 513.613 2100.5 557.5 2060.42 531.359Z" fill="#80EFA3"/><path d="M2273.69 656.668C2304.15 728.721 2304.78 808.635 2275.45 881.088" stroke="#80EFA3" stroke-width="2.29167" stroke-miterlimit="8" fill="none" fill-rule="evenodd"/><path d="M2275.19 880.437C2305.01 951.77 2305.61 1030.72 2276.87 1102.44" stroke="#80EFA3" stroke-width="2.29167" stroke-miterlimit="8" fill="none" fill-rule="evenodd"/><path d="M654.791 199.814C685.122 271.781 685.744 351.58 656.54 423.945" stroke="#80EFA3" stroke-width="2.29167" stroke-miterlimit="8" fill="none" fill-rule="evenodd" transform="matrix(-1 0 0 1 2810 457)"/><path d="M656.092 200.292C686.041 271.71 686.644 350.78 657.787 422.579" stroke="#80EFA3" stroke-width="2.29167" stroke-miterlimit="8" fill="none" fill-rule="evenodd" transform="matrix(-1 0 0 1 2809 680)"/><path d="M0 0 119.347 1.13392" stroke="#80EFA3" stroke-width="2.29167" stroke-miterlimit="8" fill="none" fill-rule="evenodd" transform="matrix(1 0 0 -1 2154 658.134)"/><path d="M0 0 122.224 0.0747047" stroke="#80EFA3" stroke-width="2.29167" stroke-miterlimit="8" fill="none" fill-rule="evenodd" transform="matrix(1 0 0 -1 2153 880.075)"/><path d="M2152 1102 2277.6 1102.07" stroke="#80EFA3" stroke-width="2.29167" stroke-miterlimit="8" fill="none" fill-rule="evenodd"/><path d="M0 0 119.616 224.202" stroke="#80EFA3" stroke-width="2.29167" stroke-miterlimit="8" fill="none" fill-rule="evenodd" transform="matrix(1 0 0 -1 2154 881.202)"/><path d="M0 0 123.485 220.996" stroke="#80EFA3" stroke-width="2.29167" stroke-miterlimit="8" fill="none" fill-rule="evenodd" transform="matrix(1 0 0 -1 2152 1102)"/><path d="M2277.49 1102.14 2154 881" stroke="#80EFA3" stroke-width="2.29167" stroke-miterlimit="8" fill="none" fill-rule="evenodd"/><path d="M2275.04 880.08 2155 657" stroke="#80EFA3" stroke-width="2.29167" stroke-miterlimit="8" fill="none" fill-rule="evenodd"/><path d="M0.635478-0.953468 335.348 222.13 334.077 224.037-0.635478 0.953468ZM338.525 209.1 353.782 235.793 323.273 231.983Z" transform="matrix(-1 0 0 1 2566.78 421)"/><path d="M1.0299e-06-1.14583 401.519-1.14547 401.519 1.14619-1.0299e-06 1.14583ZM401.519-13.7496C409.113-13.7496 415.269-7.59354 415.269 0.000373251 415.269 7.59429 409.113 13.7504 401.519 13.7504 393.925 13.7504 387.769 7.59426 387.769 0.000348534 387.769-7.59357 393.925-13.7496 401.519-13.7496Z" transform="matrix(-1 0 0 1 2614.52 707)"/><path d="M1.0299e-06-1.14583 401.519-1.14547 401.519 1.14619-1.0299e-06 1.14583ZM401.519-13.7496C409.113-13.7496 415.269-7.59354 415.269 0.000373251 415.269 7.59429 409.113 13.7504 401.519 13.7504 393.925 13.7504 387.769 7.59426 387.769 0.000348534 387.769-7.59357 393.925-13.7496 401.519-13.7496Z" transform="matrix(-1 0 0 1 2614.52 824)"/><path d="M1.0299e-06-1.14583 401.519-1.14547 401.519 1.14619-1.0299e-06 1.14583ZM401.519-13.7496C409.113-13.7496 415.269-7.59354 415.269 0.000373251 415.269 7.59429 409.113 13.7504 401.519 13.7504 393.925 13.7504 387.769 7.59426 387.769 0.000348534 387.769-7.59357 393.925-13.7496 401.519-13.7496Z" transform="matrix(-1 0 0 1 2614.52 928)"/><path d="M1.0299e-06-1.14583 401.519-1.14547 401.519 1.14619-1.0299e-06 1.14583ZM401.519-13.7496C409.113-13.7496 415.269-7.59354 415.269 0.000373251 415.269 7.59429 409.113 13.7504 401.519 13.7504 393.925 13.7504 387.769 7.59426 387.769 0.000348534 387.769-7.59357 393.925-13.7496 401.519-13.7496Z" transform="matrix(-1 0 0 1 2614.52 1054)"/><path d="M0 0 50.3531 0.000360892" stroke="#000000" stroke-width="2.29167" stroke-miterlimit="8" fill="none" fill-rule="evenodd" transform="matrix(-1 0 0 1 2614.35 422)"/><text font-family="Georgia,Georgia_MSFontService,sans-serif" font-weight="400" font-size="64" transform="matrix(1 0 0 1 2628.97 445)">Ma = 1</text><text font-family="Georgia,Georgia_MSFontService,sans-serif" font-weight="400" font-size="64" transform="matrix(1 0 0 1 2628.97 729)">Ma &lt; 1</text><text font-family="Georgia,Georgia_MSFontService,sans-serif" font-weight="400" font-size="64" transform="matrix(1 0 0 1 2628.97 951)">Ma &lt; 1</text><text font-family="Georgia,Georgia_MSFontService,sans-serif" font-weight="400" font-size="64" transform="matrix(1 0 0 1 2628.97 846)">Ma &gt; 1</text><text font-family="Georgia,Georgia_MSFontService,sans-serif" font-weight="400" font-size="64" transform="matrix(1 0 0 1 2628.97 1078)">Ma &gt; 1</text><text font-family="Georgia,Georgia_MSFontService,sans-serif" font-weight="400" font-size="64" transform="matrix(1 0 0 1 1498.19 311)">a)</text><text font-family="Georgia,Georgia_MSFontService,sans-serif" font-weight="400" font-size="64" transform="matrix(1 0 0 1 2192.64 311)">b</text><text font-family="Georgia,Georgia_MSFontService,sans-serif" font-weight="400" font-size="64" transform="matrix(1 0 0 1 2228.74 311)">)</text><path d="M1883 353 1883 1085" stroke="#000000" stroke-width="2.29167" stroke-miterlimit="8" fill="none" fill-rule="evenodd"/><text font-family="Georgia,Georgia_MSFontService,sans-serif" font-weight="400" font-size="64" transform="matrix(1 0 0 1 506.422 1078)">External turbulent</text><text font-family="Georgia,Georgia_MSFontService,sans-serif" font-weight="400" font-size="64" transform="matrix(1 0 0 1 722.984 1155)">shear layer</text><path d="M1043 1096.85 1420.64 1096.85 1420.64 1099.15 1043 1099.15ZM1416.05 1084.25 1443.55 1098 1416.05 1111.75Z"/></g></svg>